<?xml version="1.0" encoding="utf-8"?>
<!-- Svg Vector Icons : http://www.onlinewebfonts.com/icon -->
<!DOCTYPE svg PUBLIC "-//W3C//DTD SVG 1.1//EN" "http://www.w3.org/Graphics/SVG/1.1/DTD/svg11.dtd">
<svg version="1.1" xmlns="http://www.w3.org/2000/svg" xmlns:xlink="http://www.w3.org/1999/xlink" x="0px" y="0px" viewBox="0 0 1000 1000" enable-background="new 0 0 1000 1000" xml:space="preserve">
<metadata> Svg Vector Icons : http://www.onlinewebfonts.com/icon </metadata>
<g><path d="M502.8,990C231.1,990,10,769.6,10,498.5C10,282.8,154.8,89.2,362,27.7L421.8,10l-17.6,59.6c-11.7,40-17.6,80.9-17.6,121.6c0,238.5,194.5,432.6,433.8,432.6c35.7,0,72.5-4.9,109.5-14.6l60.2-15.6l-19.4,58.9C903.8,854.4,715.8,990,502.8,990z M324.9,113.9c-148,68.5-247,219-247,384.7c0,233.7,190.6,423.8,424.9,423.8c163.3,0,309.5-92.4,380.4-235.1c-21.1,2.7-42.2,4.2-62.9,4.2c-276.6,0-501.6-224.4-501.6-500.3C318.7,165.4,320.8,139.6,324.9,113.9z" fill="white"/></g>
</svg>