<?xml version="1.0" encoding="utf-8"?>
<!-- Svg Vector Icons : http://www.onlinewebfonts.com/icon -->
<!DOCTYPE svg PUBLIC "-//W3C//DTD SVG 1.1//EN" "http://www.w3.org/Graphics/SVG/1.1/DTD/svg11.dtd">
<svg version="1.1" xmlns="http://www.w3.org/2000/svg" xmlns:xlink="http://www.w3.org/1999/xlink" x="0px" y="0px" viewBox="0 0 1000 1000" enable-background="new 0 0 1000 1000" xml:space="preserve">
<metadata> Svg Vector Icons : http://www.onlinewebfonts.com/icon </metadata>
<g><g transform="translate(0.000000,380.000000) scale(0.100000,-0.100000)"><path d="M7102.8,2387c-687.1-83.4-1338.5-432.9-1733.8-929.4l-119.2-150.9l-280,7.9c-327.7,7.9-532.2-23.8-818.2-127.1C3581.7,984.9,3113,551.9,2842.9-18c-87.4-186.7-162.9-421-186.7-589.8l-11.9-91.4l-397.2-11.9c-335.6-11.9-427-19.9-585.9-63.5c-1128-299.9-1811.2-1477.6-1475.6-2544c105.3-333.7,288-627.6,548.1-879.8c234.4-228.4,446.8-363.4,746.7-476.6c317.8-119.2,123.1-111.2,3278.8-119.2c2067.4-6,2945.2-2,3088.2,13.9c925.4,105.3,1694,865.9,1819.1,1799.3c61.6,462.7-75.5,979.1-369.4,1386.2L9188.1-1440l107.2,117.2c135,145,264.1,325.7,355.5,494.5c79.4,150.9,264.1,611.7,248.2,625.6c-4,6-143-17.9-305.8-51.6C9337-308,9271.5-313.9,9108.6-304c-401.2,23.8-732.8,178.7-995,464.7c-280,305.8-431,685.2-464.7,1165.8c-17.9,246.3,13.9,470.7,111.2,778.5c47.7,145,81.4,268.1,75.5,272.1C7815.8,2396.9,7241.8,2404.8,7102.8,2387z M7168.3,1759.4c-25.8-216.5-13.9-577.9,21.9-756.6C7386.8,39.6,8085.8-659.5,8995.4-798.5c39.7-6,73.5-17.9,73.5-25.8c0-9.9-55.6-75.5-123.1-148.9l-125.1-133.1l-109.2,71.5c-168.8,111.2-383.3,204.6-593.8,260.2c-158.9,41.7-254.2,51.6-577.9,63.5l-387.3,11.9l-11.9,91.4c-59.6,419-321.7,921.5-651.4,1251.2c-147,147-395.2,327.7-577.9,423c-81.4,41.7-152.9,81.4-156.9,85.4c-17.9,13.9,266.1,286,385.3,373.4c264.1,188.7,720.9,359.5,979.1,365.4l65.5,2L7168.3,1759.4z M5285.6,782.3C5744.4,687,6153.5,407,6393.8,23.7c188.7-303.8,272.1-603.7,272.1-995v-230.4l631.5-9.9c575.9-8,641.5-11.9,776.5-51.6c309.8-91.4,593.8-274.1,768.6-494.5c115.2-145,254.2-431,297.9-609.7c47.7-190.6,47.7-587.8,0-774.5c-143-558-542.2-959.2-1104.2-1108.2l-168.8-43.7H4888.5H1909.5l-168.8,43.7c-548.1,145-953.3,546.1-1094.3,1088.3c-59.6,222.4-59.6,591.8,0,814.2c141,540.2,516.3,923.5,1056.5,1084.4c135,39.7,198.6,43.7,784.5,51.6l637.5,9.9l11.9,299.9c7.9,246.3,19.9,333.7,61.6,476.6c190.7,637.5,675.2,1084.3,1322.7,1215.4C4715.7,830,5075.1,826,5285.6,782.3z" fill="white"/></g></g>
</svg>